<?xml version="1.0" encoding="iso-8859-1"?>
<!-- Generator: Adobe Illustrator 19.0.0, SVG Export Plug-In . SVG Version: 6.00 Build 0)  -->
<svg version="1.1" id="Layer_1" xmlns="http://www.w3.org/2000/svg" xmlns:xlink="http://www.w3.org/1999/xlink" x="0px" y="0px"
	 viewBox="0 0 512 512" style="enable-background:new 0 0 512 512;" xml:space="preserve">
<polygon style="fill:#FFE777;" points="449.362,503.83 405.787,503.83 328.998,459.266 328.998,404.698 350.23,404.698 "/>
<polygon style="fill:#FFF1B1;" points="328.998,404.698 405.787,503.83 62.638,503.83 161.77,404.698 "/>
<path style="fill:#FE5F1A;" d="M257.547,8.181L256,454.58l133.643-188.972c18.748-26.591,29.761-59.022,29.761-94.034
	C419.404,81.844,347.082,9.009,257.547,8.181z"/>
<path style="fill:#FE834D;" d="M375.83,171.574c0,35.012-8.083,67.442-21.831,94.034L256,454.58L122.357,265.608
	c-18.748-26.591-29.761-59.022-29.761-94.034C92.596,81.332,165.757,8.17,256,8.17c0.512,0,1.035,0,1.547,0.011
	C323.018,9.314,375.83,82.04,375.83,171.574z"/>
<path style="fill:#FFF1B1;" d="M256,100.766v141.617c39.043,0,70.809-31.766,70.809-70.809S295.043,100.766,256,100.766z"/>
<path style="fill:#FFFFFF;" d="M256,100.766c21.025,0,38.128,31.766,38.128,70.809S277.025,242.383,256,242.383
	c-39.043,0-70.809-31.766-70.809-70.809S216.957,100.766,256,100.766z"/>
<path d="M455.139,498.052l-99.132-99.132c-1.532-1.532-3.61-2.392-5.777-2.392h-18.927c-4.512,0-8.17,3.657-8.17,8.17
	c0,4.513,3.658,8.17,8.17,8.17h15.542l82.791,82.791H82.362l82.791-82.791h15.542c4.512,0,8.17-3.657,8.17-8.17
	c0-4.513-3.658-8.17-8.17-8.17H161.77c-2.167,0-4.245,0.861-5.777,2.392l-99.132,99.132c-2.337,2.338-3.036,5.851-1.771,8.904
	S59.334,512,62.638,512h386.723c3.304,0,6.283-1.99,7.548-5.044C458.175,503.903,457.475,500.39,455.139,498.052z"/>
<path d="M249.329,459.294c1.532,2.165,4.019,3.452,6.671,3.452s5.14-1.288,6.671-3.452L396.32,270.32
	c20.448-29.004,31.256-63.15,31.256-98.746C427.574,76.968,350.607,0,256,0S84.426,76.968,84.426,171.574
	c0,35.596,10.808,69.742,31.262,98.756L249.329,459.294z M256,16.34c85.597,0,155.234,69.637,155.234,155.234
	c0,32.206-9.776,63.097-28.263,89.32L256,440.427L129.037,260.905c-18.495-26.234-28.271-57.125-28.271-89.331
	C100.766,85.978,170.403,16.34,256,16.34z"/>
<path d="M200.047,215.665c3.837-2.375,5.023-7.41,2.649-11.247c-6.107-9.87-9.335-21.225-9.335-32.843
	c0-34.539,28.099-62.638,62.638-62.638s62.638,28.099,62.638,62.638S290.539,234.213,256,234.213
	c-11.617,0-22.974-3.228-32.843-9.335c-3.839-2.376-8.873-1.187-11.247,2.649c-2.374,3.837-1.188,8.873,2.649,11.247
	c12.454,7.706,26.784,11.779,41.44,11.779c43.549,0,78.979-35.429,78.979-78.979S299.549,92.596,256,92.596
	s-78.979,35.429-78.979,78.979c0,14.657,4.073,28.988,11.779,41.441C191.175,216.852,196.21,218.038,200.047,215.665z"/>
<g>
</g>
<g>
</g>
<g>
</g>
<g>
</g>
<g>
</g>
<g>
</g>
<g>
</g>
<g>
</g>
<g>
</g>
<g>
</g>
<g>
</g>
<g>
</g>
<g>
</g>
<g>
</g>
<g>
</g>
</svg>
